<?xml version="1.0" encoding="utf-8"?>
<!-- Generator: Adobe Illustrator 22.0.1, SVG Export Plug-In . SVG Version: 6.00 Build 0)  -->
<svg version="1.1" id="Layer_1" xmlns="http://www.w3.org/2000/svg" xmlns:xlink="http://www.w3.org/1999/xlink" x="0px" y="0px"
	 viewBox="0 0 600 286" style="enable-background:new 0 0 600 286;" xml:space="preserve">
<style type="text/css">
	.st0{fill-rule:evenodd;clip-rule:evenodd;fill:#FFFFFF;}
	.st1{fill:#BFBFBF;}
	.st2{fill-rule:evenodd;clip-rule:evenodd;fill:#EAD561;}
	.st3{fill-rule:evenodd;clip-rule:evenodd;fill:#9CD368;}
	.st4{fill-rule:evenodd;clip-rule:evenodd;fill:#66D4BF;}
	.st5{fill-rule:evenodd;clip-rule:evenodd;fill:#1CA7D1;}
	.st6{fill:#FFFFFF;}
	.st7{fill:#565FAB;}
	.st8{fill-rule:evenodd;clip-rule:evenodd;fill:#565FAB;}
</style>
<g>
	<g>
		<g>
			<path class="st0" d="M77.1,130.7c0-12.8,10.4-23.2,23.2-23.2h399.4c12.8,0,23.2,10.4,23.2,23.2v93c0,12.8-10.4,23.2-23.2,23.2
				H100.4c-12.8,0-23.2-10.4-23.2-23.2V130.7z"/>
		</g>
		<g>
			<path class="st1" d="M499.8,247.7H100.4c-13.2,0-24-10.8-24-24v-93c0-13.2,10.8-24,24-24h399.4c13.2,0,24,10.8,24,24v93
				C523.8,236.9,513,247.7,499.8,247.7z M100.4,108.2c-12.4,0-22.5,10.1-22.5,22.5v93c0,12.4,10.1,22.5,22.5,22.5h399.4
				c12.4,0,22.5-10.1,22.5-22.5v-93c0-12.4-10.1-22.5-22.5-22.5H100.4z"/>
		</g>
		<g>
			<path class="st2" d="M87.1,218.9v-85c0-9.2,7.5-16.7,16.7-16.7h83.5v118.4h-83.5C94.6,235.7,87.1,228.2,87.1,218.9L87.1,218.9z"
				/>
		</g>
		<g>
			<polygon class="st3" points="198,118 295,118 295,236.4 198,236.4 198,118 			"/>
		</g>
		<g>
			<polygon class="st4" points="304.8,118 401.7,118 401.7,236.4 304.8,236.4 304.8,118 			"/>
		</g>
		<g>
			<path class="st5" d="M512.7,133.9v85c0,9.2-7.5,16.7-16.7,16.7h-83.5V117.2H496C505.2,117.2,512.7,124.7,512.7,133.9L512.7,133.9
				z"/>
		</g>
		<g>
			<path class="st0" d="M125,215.5c2.5,0,3.6,1.8,3.6,5.8c0,4-1.1,5.8-3.6,5.8c-2.5,0-3.6-1.8-3.6-5.8
				C121.4,217.4,122.5,215.5,125,215.5L125,215.5z M125,216.9c-1,0-1.9,0.7-1.9,4.4c0,3.9,0.8,4.5,1.9,4.5c1,0,1.9-0.7,1.9-4.5
				C126.9,217.5,126.1,216.9,125,216.9L125,216.9z"/>
		</g>
		<g>
			<path class="st0" d="M149.3,215.5c3.2,0,3.4,2.3,3.4,3.5v0.2h-1.8v-0.2c0-1.1-0.3-2.2-1.6-2.2c-1.4,0-1.9,0.8-1.9,4.4
				c0,3.6,0.6,4.5,1.9,4.5c1.5,0,1.7-1.7,1.7-2.7V223h1.8v0.2c0,2-0.8,4-3.5,4c-2.9,0-3.8-1.8-3.8-5.8
				C145.5,217.4,146.4,215.5,149.3,215.5L149.3,215.5z"/>
		</g>
		<g>
			<path class="st0" d="M108.9,215.7h2.3l3,11.1h-1.9l-0.7-2.7h-3.3l-0.7,2.7h-1.9L108.9,215.7L108.9,215.7L108.9,215.7z
				 M109.9,217.2l-1.3,5.5h2.7L109.9,217.2L109.9,217.2L109.9,217.2L109.9,217.2z"/>
		</g>
		<g>
			<polygon class="st0" points="113.7,215.7 120.8,215.7 120.8,217.2 118.2,217.2 118.2,226.8 116.4,226.8 116.4,217.2 113.7,217.2 
				113.7,215.7 113.7,215.7 			"/>
		</g>
		<g>
			<polygon class="st0" points="130.6,215.7 133.4,215.7 135.4,224 135.4,224 137.4,215.7 140.2,215.7 140.2,226.8 138.5,226.8 
				138.5,217.6 138.4,217.6 136.1,226.8 134.6,226.8 132.3,217.6 132.3,217.6 132.3,226.8 130.6,226.8 130.6,215.7 130.6,215.7 			
				"/>
		</g>
		<g>
			<polygon class="st0" points="142.1,215.7 144,215.7 144,226.8 142.1,226.8 142.1,215.7 			"/>
		</g>
		<g>
			<polygon class="st0" points="154.2,215.7 155.9,215.7 155.9,226.8 154.2,226.8 154.2,215.7 			"/>
		</g>
		<g>
			<polygon class="st0" points="157,215.7 164.1,215.7 164.1,217.2 161.5,217.2 161.5,226.8 159.7,226.8 159.7,217.2 157,217.2 
				157,215.7 157,215.7 			"/>
		</g>
		<g>
			<polygon class="st0" points="164.5,215.7 166.5,215.7 168.4,220.5 170.3,215.7 172.2,215.7 169.2,222.5 169.2,226.8 167.4,226.8 
				167.4,222.5 164.5,215.7 164.5,215.7 			"/>
		</g>
		<g>
			<path class="st0" d="M209.9,215c3.1,0,3.3,2.2,3.3,3.4v0.2h-1.7v-0.2c0-1-0.3-2.1-1.5-2.1c-1.3,0-1.8,0.8-1.8,4.2
				s0.6,4.3,1.8,4.3c1.5,0,1.6-1.6,1.6-2.6V222h1.7v0.2c0,1.9-0.8,3.8-3.3,3.8c-2.7,0-3.6-1.7-3.6-5.6
				C206.3,216.7,207.1,215,209.9,215L209.9,215z"/>
		</g>
		<g>
			<path class="st0" d="M217.7,215c2.5,0,3.5,1.7,3.5,5.6c0,3.8-1.1,5.6-3.5,5.6s-3.5-1.7-3.5-5.6C214.1,216.7,215.2,215,217.7,215
				L217.7,215z M217.7,216.2c-1,0-1.8,0.6-1.8,4.2c0,3.7,0.8,4.3,1.8,4.3s1.8-0.6,1.8-4.3C219.5,216.9,218.7,216.2,217.7,216.2
				L217.7,216.2z"/>
		</g>
		<g>
			<path class="st0" d="M235.2,215c2.7,0,3,1.7,3,2.8v0.2h-1.7v-0.2c0-1-0.4-1.5-1.5-1.5c-0.7,0-1.4,0.4-1.4,1.5
				c0,0.9,0.5,1.4,1.6,1.8l1.1,0.4c1.5,0.5,2.1,1.3,2.1,2.8c0,2.3-1.4,3.2-3.5,3.2c-2.6,0-3.2-1.8-3.2-3.3v-0.3h1.7v0.3
				c0,1.3,0.6,2,1.7,2c1.1,0,1.6-0.8,1.6-1.6c0-1.1-0.6-1.6-1.5-1.9l-1.2-0.4c-1.5-0.6-2.2-1.4-2.2-2.9
				C231.9,216,233.2,215,235.2,215L235.2,215z"/>
		</g>
		<g>
			<path class="st0" d="M246.7,215c2.7,0,3,1.7,3,2.8v0.2H248v-0.2c0-1-0.4-1.5-1.5-1.5c-0.7,0-1.4,0.4-1.4,1.5
				c0,0.9,0.5,1.4,1.6,1.8l1.1,0.4c1.5,0.5,2.1,1.3,2.1,2.8c0,2.3-1.4,3.2-3.5,3.2c-2.6,0-3.2-1.8-3.2-3.3v-0.3h1.7v0.3
				c0,1.3,0.6,2,1.7,2c1.1,0,1.6-0.8,1.6-1.6c0-1.1-0.6-1.6-1.5-1.9l-1.2-0.4c-1.5-0.6-2.2-1.4-2.2-2.9
				C243.4,216,244.7,215,246.7,215L246.7,215z"/>
		</g>
		<g>
			<path class="st0" d="M278.5,215c3,0,3.2,2.2,3.2,3.4v0.2H280v-0.2c0-1-0.3-2.1-1.5-2.1c-1.3,0-1.8,0.8-1.8,4.2s0.5,4.3,1.8,4.3
				c1.4,0,1.6-1.6,1.6-2.6V222h1.7v0.2c0,1.9-0.8,3.8-3.2,3.8c-2.6,0-3.5-1.7-3.5-5.6C275.1,216.7,275.9,215,278.5,215L278.5,215z"
				/>
		</g>
		<g>
			<polygon class="st0" points="223.1,215.1 225.2,215.1 228.4,223.1 228.4,223.1 228.4,215.1 230,215.1 230,225.9 227.9,225.9 
				224.8,217.7 224.8,217.7 224.8,225.9 223.1,225.9 223.1,215.1 223.1,215.1 			"/>
		</g>
		<g>
			<polygon class="st0" points="240,215.1 241.7,215.1 241.7,225.9 240,225.9 240,215.1 			"/>
		</g>
		<g>
			<polygon class="st0" points="250.7,215.1 257.4,215.1 257.4,216.6 254.9,216.6 254.9,225.9 253.3,225.9 253.3,216.6 250.7,216.6 
				250.7,215.1 250.7,215.1 			"/>
		</g>
		<g>
			<polygon class="st0" points="258.8,215.1 264.6,215.1 264.6,216.6 260.5,216.6 260.5,219.6 264.3,219.6 264.3,221 260.5,221 
				260.5,224.4 264.7,224.4 264.7,225.9 258.8,225.9 258.8,215.1 258.8,215.1 			"/>
		</g>
		<g>
			<polygon class="st0" points="266.2,215.1 268.3,215.1 271.5,223.1 271.5,223.1 271.5,215.1 273.1,215.1 273.1,225.9 271,225.9 
				267.9,217.7 267.9,217.7 267.9,225.9 266.2,225.9 266.2,215.1 266.2,215.1 			"/>
		</g>
		<g>
			<polygon class="st0" points="282.3,215.1 284.2,215.1 286,219.8 287.8,215.1 289.6,215.1 286.8,221.7 286.8,225.9 285.1,225.9 
				285.1,221.7 282.3,215.1 282.3,215.1 			"/>
		</g>
		<g>
			<path class="st0" d="M328.4,214.8c2.8,0,3.1,1.7,3.1,2.9v0.2h-1.7v-0.2c0-1-0.4-1.6-1.5-1.6c-0.7,0-1.5,0.4-1.5,1.6
				c0,0.9,0.5,1.4,1.6,1.8l1.2,0.4c1.5,0.5,2.2,1.4,2.2,2.9c0,2.3-1.4,3.3-3.6,3.3c-2.7,0-3.3-1.8-3.3-3.3v-0.3h1.7v0.3
				c0,1.3,0.6,2,1.8,2c1.1,0,1.6-0.8,1.6-1.6c0-1.1-0.6-1.6-1.6-1.9l-1.2-0.4c-1.6-0.6-2.3-1.4-2.3-3
				C325,215.9,326.4,214.8,328.4,214.8L328.4,214.8z"/>
		</g>
		<g>
			<path class="st0" d="M336.7,214.8c2.5,0,3.5,1.8,3.5,5.7c0,3.9-1.1,5.7-3.5,5.7c-2.5,0-3.5-1.8-3.5-5.7
				C333.1,216.5,334.2,214.8,336.7,214.8L336.7,214.8z M336.7,216.1c-1,0-1.8,0.6-1.8,4.3c0,3.7,0.8,4.4,1.8,4.4
				c1,0,1.8-0.7,1.8-4.4C338.5,216.7,337.7,216.1,336.7,216.1L336.7,216.1z"/>
		</g>
		<g>
			<path class="st0" d="M371.4,214.8c2.5,0,3.6,1.8,3.6,5.7c0,3.9-1.1,5.7-3.6,5.7s-3.6-1.8-3.6-5.7
				C367.8,216.5,368.9,214.8,371.4,214.8L371.4,214.8z M371.4,216.1c-1,0-1.9,0.6-1.9,4.3c0,3.7,0.8,4.4,1.9,4.4s1.9-0.7,1.9-4.4
				C373.3,216.7,372.5,216.1,371.4,216.1L371.4,216.1z"/>
		</g>
		<g>
			<polygon class="st0" points="321.6,215 323.3,215 323.3,225.9 321.6,225.9 321.6,215 			"/>
		</g>
		<g>
			<polygon class="st0" points="341.9,215 343.7,215 343.7,224.4 347.9,224.4 347.9,225.9 341.9,225.9 341.9,215 341.9,215 			"/>
		</g>
		<g>
			<path class="st0" d="M351.2,215h2.2l2.9,10.9h-1.8l-0.7-2.7h-3.2l-0.7,2.7h-1.8L351.2,215L351.2,215L351.2,215z M352.2,216.4
				l-1.3,5.4h2.6L352.2,216.4L352.2,216.4L352.2,216.4L352.2,216.4z"/>
		</g>
		<g>
			<polygon class="st0" points="356.3,215 363.2,215 363.2,216.4 360.6,216.4 360.6,225.9 358.9,225.9 358.9,216.4 356.3,216.4 
				356.3,215 356.3,215 			"/>
		</g>
		<g>
			<polygon class="st0" points="364.5,215 366.3,215 366.3,225.9 364.5,225.9 364.5,215 			"/>
		</g>
		<g>
			<polygon class="st0" points="377,215 379.1,215 382.2,223.1 382.3,223.1 382.3,215 383.9,215 383.9,225.9 381.8,225.9 
				378.7,217.5 378.6,217.5 378.6,225.9 377,225.9 377,215 377,215 			"/>
		</g>
		<g>
			<path class="st0" d="M424.5,214h3.3c3.7,0,4.1,2.4,4.1,5.8c0,3.5-0.5,5.8-4.1,5.8h-3.3V214L424.5,214L424.5,214z M426.4,215.4
				v8.9h1.5c1.5,0,2.2-1,2.2-4.4c0-3.3-0.6-4.4-2.2-4.4H426.4L426.4,215.4L426.4,215.4z"/>
		</g>
		<g>
			<path class="st0" d="M433.9,214h1.8v8.4c0,1.5,0.6,2.1,1.7,2.1c1.1,0,1.7-0.6,1.7-2.1V214h1.8v8.2c0,2.7-1.3,3.7-3.5,3.7
				c-2.2,0-3.6-1-3.6-3.7V214L433.9,214L433.9,214z"/>
		</g>
		<g>
			<path class="st0" d="M442.9,214h4.2c1.7,0,3,0.8,3,3c0,1.5-0.7,2.7-2,2.9v0c1.2,0.1,1.8,0.8,1.9,2.4c0,0.8,0,1.7,0.1,2.4
				c0,0.6,0.3,0.8,0.6,1h-2.1c-0.2-0.2-0.3-0.6-0.3-1c0-0.3,0-0.7,0-1c0-0.3,0-0.7,0-1.2c0-1.3-0.4-1.8-1.7-1.8h-1.5v5.1h-1.9V214
				L442.9,214L442.9,214z M444.8,215.4v3.8h1.5c1.2,0,1.9-0.7,1.9-1.9c0-1.2-0.5-1.9-1.8-1.9H444.8L444.8,215.4L444.8,215.4z"/>
		</g>
		<g>
			<path class="st0" d="M454,214h2.3l3,11.7h-1.9l-0.7-2.9h-3.4l-0.7,2.9h-1.9L454,214L454,214L454,214z M455.1,215.6l-1.4,5.8h2.7
				L455.1,215.6L455.1,215.6L455.1,215.6L455.1,215.6z"/>
		</g>
		<g>
			<path class="st0" d="M460.5,214h3.8c1.7,0,3.1,0.8,3.1,2.8c0,1.4-0.6,2.3-1.7,2.7v0c1.3,0.2,2.1,1,2.1,3c0,2-1.4,3.2-3.6,3.2
				h-3.7V214L460.5,214L460.5,214z M462.4,215.4v3.5h1.5c1.1,0,1.7-0.7,1.7-1.8c0-1.4-0.8-1.7-1.9-1.7H462.4L462.4,215.4
				L462.4,215.4z M462.4,220.2v4h1.8c1.1,0,1.7-0.7,1.7-2.1c0-1.3-0.7-2-1.8-2H462.4L462.4,220.2L462.4,220.2z"/>
		</g>
		<g>
			<polygon class="st0" points="469.3,214 471.1,214 471.1,225.7 469.3,225.7 469.3,214 			"/>
		</g>
		<g>
			<polygon class="st0" points="473,214 474.8,214 474.8,224.1 479.3,224.1 479.3,225.7 473,225.7 473,214 473,214 			"/>
		</g>
		<g>
			<polygon class="st0" points="480.5,214 482.4,214 482.4,225.7 480.5,225.7 480.5,214 			"/>
		</g>
		<g>
			<polygon class="st0" points="483.5,214 490.8,214 490.8,215.6 488.1,215.6 488.1,225.7 486.3,225.7 486.3,215.6 483.5,215.6 
				483.5,214 483.5,214 			"/>
		</g>
		<g>
			<polygon class="st0" points="491.2,214 493.3,214 495.3,219 497.3,214 499.2,214 496.1,221.1 496.1,225.7 494.2,225.7 
				494.2,221.1 491.2,214 491.2,214 			"/>
		</g>
	</g>
	<g>
		<g>
			<circle class="st6" cx="301" cy="87.7" r="83.7"/>
			<path class="st7" d="M301,175.1c-48.2,0-87.4-39.2-87.4-87.4S252.8,0.3,301,0.3c48.2,0,87.4,39.2,87.4,87.4
				S349.2,175.1,301,175.1z M301,7.8c-44.1,0-79.9,35.9-79.9,79.9s35.9,79.9,79.9,79.9c44.1,0,79.9-35.9,79.9-79.9
				S345.1,7.8,301,7.8z"/>
		</g>
		<g>
			<g>
				<path class="st8" d="M301.1,44.9c13.1,11.2,27.5,10.7,40.3,10.6c0.1,22.6-3.6,53.4-39.6,85c-36-31.5-39.4-54.3-39.6-85
					C275.5,55.6,287.4,55.3,301.1,44.9z M300.9,52.1c-11.2,8.6-20.9,8.8-31.8,8.7c0,3.1,0.1,6.2,0.2,9.2l0.3,3.8L273,74
					c7.1,1,16.8,1.7,27.6,1.7c10.8,0,20.5-0.6,27.6-1.7c0.7-0.1,2.1-0.4,3.4-0.7l1.5-0.3l0.4-4.9c0.1-2.5,0.2-4.9,0.1-7.3
					C323.3,60.9,311.6,61.3,300.9,52.1z M299.6,80.5c-1,0-1.9,0.2-2.7,0.5c-0.8,0.4-1.4,0.9-2,1.5c-0.5,0.6-0.9,1.4-1.2,2.2
					c-0.3,0.8-0.4,1.8-0.4,2.7c0,1,0.1,1.9,0.4,2.7c0.3,0.8,0.6,1.6,1.1,2.2c0.5,0.6,1.1,1.1,1.9,1.5c0.8,0.4,1.7,0.5,2.7,0.5
					c1.7,0,3-0.5,4-1.4c1-0.9,1.6-2.2,1.7-3.9h-1.8c0,0.5-0.1,1.1-0.3,1.5c-0.2,0.5-0.4,0.9-0.8,1.2c-0.3,0.3-0.7,0.6-1.2,0.8
					c-0.5,0.2-1,0.3-1.6,0.3c-0.8,0-1.5-0.1-2-0.4c-0.6-0.3-1-0.7-1.4-1.2c-0.4-0.5-0.6-1.1-0.8-1.8c-0.2-0.7-0.3-1.4-0.3-2.1
					c0-0.7,0.1-1.4,0.3-2c0.2-0.6,0.4-1.2,0.8-1.7c0.4-0.5,0.8-0.9,1.4-1.2c0.6-0.3,1.2-0.4,2-0.4c0.9,0,1.7,0.2,2.4,0.7
					c0.7,0.5,1.1,1.2,1.3,2.1h1.8c-0.1-0.7-0.3-1.3-0.6-1.9c-0.3-0.5-0.7-1-1.2-1.3c-0.5-0.4-1-0.6-1.7-0.8
					C300.9,80.6,300.3,80.5,299.6,80.5z M285.8,80.8l-5.2,13.3h1.8l1.5-4h5.6l1.5,4h2l-5.2-13.3H285.8z M307.1,80.8v13.3h1.8V80.8
					H307.1z M311.4,80.8v13.3h4.6c1.1,0,2.1-0.2,2.9-0.5c0.8-0.3,1.5-0.8,2-1.3c0.5-0.6,0.9-1.3,1.2-2.2c0.2-0.9,0.4-1.9,0.4-3
					c0-2.1-0.6-3.7-1.7-4.8c-1.1-1-2.7-1.6-4.7-1.6H311.4z M313.2,82.3h3c0.8,0,1.5,0.1,2.1,0.3c0.6,0.2,1,0.6,1.4,1
					c0.4,0.4,0.6,1,0.8,1.6c0.2,0.6,0.2,1.3,0.2,2.1c0,0.8-0.1,1.5-0.3,2.1c-0.2,0.6-0.4,1.1-0.6,1.4c-0.3,0.4-0.6,0.7-0.9,0.9
					c-0.3,0.2-0.7,0.4-1,0.5c-0.3,0.1-0.7,0.2-0.9,0.2c-0.3,0-0.5,0-0.7,0h-2.9V82.3z M286.7,82.4L286.7,82.4l2.3,6.2h-4.5
					L286.7,82.4z M326.1,98.7l-11.5,1.6c-4.5,0.4-9.2,0.6-14,0.6c-4.8,0-9.5-0.2-14-0.6l-10.7-1.5l2.4,5
					c4.8,8.4,12.1,17.1,23.1,26.8c11-9.7,18.3-19.3,23.2-28.6L326.1,98.7z"/>
			</g>
		</g>
	</g>
</g>
</svg>
